<?xml version="1.0" encoding="utf-8"?>
<!-- Generator: Adobe Illustrator 28.7.1, SVG Export Plug-In . SVG Version: 9.03 Build 54978)  -->
<svg version="1.1" id="Layer_1" xmlns="http://www.w3.org/2000/svg" xmlns:xlink="http://www.w3.org/1999/xlink" x="0px" y="0px"
	 viewBox="0 0 1920 1080" style="enable-background:new 0 0 1920 1080;" xml:space="preserve">
<style type="text/css">
	.st0{fill-rule:evenodd;clip-rule:evenodd;fill:url(#SVGID_1_);}
	.st1{fill-rule:evenodd;clip-rule:evenodd;fill:url(#SVGID_00000169526976255345691490000018134094005267886524_);}
	.st2{fill-rule:evenodd;clip-rule:evenodd;fill:url(#SVGID_00000132784872268524147280000013882074269292113042_);}
	.st3{fill-rule:evenodd;clip-rule:evenodd;fill:url(#SVGID_00000090986706642301350900000009796234164789249692_);}
	.st4{fill-rule:evenodd;clip-rule:evenodd;fill:url(#SVGID_00000097488668576127495210000008673235623631184025_);}
	.st5{fill-rule:evenodd;clip-rule:evenodd;fill:url(#SVGID_00000102537142421673587080000018122848523233150655_);}
	.st6{fill-rule:evenodd;clip-rule:evenodd;fill:url(#SVGID_00000119815805211776567400000006974168225877724808_);}
	.st7{fill-rule:evenodd;clip-rule:evenodd;fill:url(#SVGID_00000084509947050142502240000003889284007678491010_);}
	.st8{fill-rule:evenodd;clip-rule:evenodd;fill:#313A42;}
	.st9{fill-rule:evenodd;clip-rule:evenodd;fill:url(#SVGID_00000142162433185525454720000003635845784633181878_);}
	.st10{fill-rule:evenodd;clip-rule:evenodd;fill:url(#SVGID_00000065785602072115976960000002033320376419383475_);}
	.st11{fill-rule:evenodd;clip-rule:evenodd;fill:url(#SVGID_00000104666300735373790800000018040557769700050326_);}
</style>
<g>
	
		<linearGradient id="SVGID_1_" gradientUnits="userSpaceOnUse" x1="1036.6858" y1="1180.491" x2="1271.667" y2="1180.491" gradientTransform="matrix(1 0 0 1 -287.4481 -325.6954)">
		<stop  offset="0" style="stop-color:#4E5D6A"/>
		<stop  offset="1" style="stop-color:#313A42"/>
	</linearGradient>
	<path class="st0" d="M749.24,827.64c0,0,6.39,44.99,27.76,60.55c21.37,15.56,81.78-3.24,153.33,12.32l53.89-41.5l-170.05-49.93
		L749.24,827.64L749.24,827.64z"/>
	
		<linearGradient id="SVGID_00000158002014774765339600000010761956665527734424_" gradientUnits="userSpaceOnUse" x1="1036.6858" y1="1189.767" x2="1229.6536" y2="1189.767" gradientTransform="matrix(1 0 0 1 -287.4481 -325.6954)">
		<stop  offset="0" style="stop-color:#F2F6FC"/>
		<stop  offset="1" style="stop-color:#4E5D6A"/>
	</linearGradient>
	<path style="fill-rule:evenodd;clip-rule:evenodd;fill:url(#SVGID_00000158002014774765339600000010761956665527734424_);" d="
		M749.24,827.64c0,0,6.39,44.99,27.76,60.55c21.37,15.56,81.78-3.24,153.33,12.32l11.88-9.15c-19.93-26.87-58.23-26.39-110.24-29.14
		C770.63,858.98,749.24,827.64,749.24,827.64L749.24,827.64z"/>
	
		<linearGradient id="SVGID_00000022558834983192926830000017970216077631055772_" gradientUnits="userSpaceOnUse" x1="937.4188" y1="1118.5073" x2="1305.108" y2="1118.5073" gradientTransform="matrix(1 0 0 1 -287.4481 -325.6954)">
		<stop  offset="0" style="stop-color:#4E5D6A"/>
		<stop  offset="1" style="stop-color:#313A42"/>
	</linearGradient>
	<path style="fill-rule:evenodd;clip-rule:evenodd;fill:url(#SVGID_00000022558834983192926830000017970216077631055772_);" d="
		M649.97,739.13c0,0,1.57,67.36,55.46,82.92c53.89,15.56,147.15-10.94,244.56,43.16l67.67-36.67l-65.05-58.36
		C952.61,770.18,653.39,683.29,649.97,739.13L649.97,739.13z"/>
	
		<linearGradient id="SVGID_00000095296573371539111440000003500613900197845941_" gradientUnits="userSpaceOnUse" x1="937.4188" y1="1127.8667" x2="1237.5704" y2="1127.8667" gradientTransform="matrix(1 0 0 1 -287.4481 -325.6954)">
		<stop  offset="0" style="stop-color:#F2F6FC"/>
		<stop  offset="1" style="stop-color:#4E5D6A"/>
	</linearGradient>
	<path style="fill-rule:evenodd;clip-rule:evenodd;fill:url(#SVGID_00000095296573371539111440000003500613900197845941_);" d="
		M649.97,739.13c0,0,1.57,67.36,55.46,82.92c53.89,15.56,147.15-10.94,244.56,43.16c4.7-67.69-115.29-63.94-191.49-73.01
		C682.3,783.12,649.97,739.13,649.97,739.13L649.97,739.13z"/>
	
		<linearGradient id="SVGID_00000155825285831389253500000018337613650898771900_" gradientUnits="userSpaceOnUse" x1="829.0929" y1="1041.0107" x2="1385.3245" y2="1041.0107" gradientTransform="matrix(1 0 0 1 -287.4481 -325.6954)">
		<stop  offset="0" style="stop-color:#4E5D6A"/>
		<stop  offset="1" style="stop-color:#313A42"/>
	</linearGradient>
	<path style="fill-rule:evenodd;clip-rule:evenodd;fill:url(#SVGID_00000155825285831389253500000018337613650898771900_);" d="
		M541.65,612.13c0,0-1.63,91.91,65.27,117.84c66.91,25.94,248.57-5.76,377.98,98.27c0,0,102.39-49.29,112.67-46.39
		c10.28,2.9-247.19-133.57-247.19-133.57S571.62,576.96,541.65,612.13L541.65,612.13z"/>
	
		<linearGradient id="SVGID_00000040556409311407790990000010346627825910198660_" gradientUnits="userSpaceOnUse" x1="829.0929" y1="1045.8851" x2="1272.3497" y2="1045.8851" gradientTransform="matrix(1 0 0 1 -287.4481 -325.6954)">
		<stop  offset="0" style="stop-color:#F2F6FC"/>
		<stop  offset="1" style="stop-color:#4E5D6A"/>
	</linearGradient>
	<path style="fill-rule:evenodd;clip-rule:evenodd;fill:url(#SVGID_00000040556409311407790990000010346627825910198660_);" d="
		M541.65,612.13c0,0-1.63,91.91,65.27,117.84c66.91,25.94,248.57-5.76,377.98,98.27c-4.05-79.37-165.14-112.93-302.61-126.82
		C544.84,687.54,541.65,612.13,541.65,612.13L541.65,612.13z"/>
	
		<linearGradient id="SVGID_00000160877479898853330650000012540954635221694890_" gradientUnits="userSpaceOnUse" x1="706.886" y1="907.0812" x2="1342.2666" y2="907.0812" gradientTransform="matrix(1 0 0 1 -287.4481 -325.6954)">
		<stop  offset="0" style="stop-color:#4E5D6A"/>
		<stop  offset="1" style="stop-color:#313A42"/>
	</linearGradient>
	<path style="fill-rule:evenodd;clip-rule:evenodd;fill:url(#SVGID_00000160877479898853330650000012540954635221694890_);" d="
		M424.71,372.1c0,0-37.1,167.25,85.56,226.9c122.67,59.65,481.14,99.33,496.12,191.66l48.43-50.31c0,0-76.19-143.95-223.01-202.3
		C684.99,479.7,424.71,372.1,424.71,372.1L424.71,372.1z"/>
	
		<linearGradient id="SVGID_00000178176009871729528400000010534128149646400174_" gradientUnits="userSpaceOnUse" x1="706.886" y1="907.0812" x2="1293.8385" y2="907.0812" gradientTransform="matrix(1 0 0 1 -287.4481 -325.6954)">
		<stop  offset="0" style="stop-color:#F2F6FC"/>
		<stop  offset="1" style="stop-color:#4E5D6A"/>
	</linearGradient>
	<path style="fill-rule:evenodd;clip-rule:evenodd;fill:url(#SVGID_00000178176009871729528400000010534128149646400174_);" d="
		M424.71,372.1c0,0-37.1,167.25,85.56,226.9c122.67,59.65,481.14,99.33,496.12,191.66c-17.88-111.76-136.93-136.68-370.07-206.72
		C403.17,513.9,424.71,372.1,424.71,372.1L424.71,372.1z"/>
	<path class="st8" d="M1096.08,594.16c0,0,256.47,0,278.77,0c22.3,0,64.6,30.14,67.38,33.38c2.78,3.24-38.1,4.54-51.58,2.92
		c-13.47-1.62-21.83-13.94-33.44-14.92c-11.62-0.97-70.62,0-75.73,0c-5.11,0,42.74,22.37,65.97,23.02
		c23.23,0.65,121.74-1.3,134.76-2.59c13.01-1.3,56.7,5.19,83.65,64.84c-202.8-64.92-295.78,110.02-478.57,165.98
		C1180.84,785.64,1210.45,673.91,1096.08,594.16L1096.08,594.16z"/>
	
		<linearGradient id="SVGID_00000120558154278431092340000014190401216924845447_" gradientUnits="userSpaceOnUse" x1="1374.7438" y1="1093.9102" x2="1853.3098" y2="1093.9102" gradientTransform="matrix(1 0 0 1 -287.4481 -325.6954)">
		<stop  offset="0" style="stop-color:#E67575"/>
		<stop  offset="1" style="stop-color:#DB3939"/>
	</linearGradient>
	<path style="fill-rule:evenodd;clip-rule:evenodd;fill:url(#SVGID_00000120558154278431092340000014190401216924845447_);" d="
		M1565.86,700.81c-202.8-64.92-295.78,110.02-478.57,165.98c26.65-23.11,48.1-48.72,62.52-75.35
		c110.93-45.72,201.1-123.43,291.81-121.78C1548.49,671.61,1565.86,700.81,1565.86,700.81L1565.86,700.81z"/>
	
		<linearGradient id="SVGID_00000160875007569145077230000008742060408744863414_" gradientUnits="userSpaceOnUse" x1="674.3934" y1="865.6954" x2="1414.2727" y2="865.6954" gradientTransform="matrix(1 0 0 1 -287.4481 -325.6954)">
		<stop  offset="0" style="stop-color:#4E5D6A"/>
		<stop  offset="1" style="stop-color:#313A42"/>
	</linearGradient>
	<path style="fill-rule:evenodd;clip-rule:evenodd;fill:url(#SVGID_00000160875007569145077230000008742060408744863414_);" d="
		M796.45,951.73c171.38-20.66,370.45-140.23,323.35-272.64c-19.94-56.05-87.97-111.27-215.55-174.75
		C677.52,391.52,521.4,335.76,432.2,128.27c0,0-137.52,168.58,66.92,316.41c204.43,147.83,459.05,176.36,503.66,261.95
		C1047.37,792.22,956.31,892.07,796.45,951.73L796.45,951.73z"/>
	
		<linearGradient id="SVGID_00000182509876054781288690000012557154218490883470_" gradientUnits="userSpaceOnUse" x1="674.3934" y1="865.6954" x2="1351.4287" y2="865.6954" gradientTransform="matrix(1 0 0 1 -287.4481 -325.6954)">
		<stop  offset="0" style="stop-color:#F2F6FC"/>
		<stop  offset="1" style="stop-color:#4E5D6A"/>
	</linearGradient>
	<path style="fill-rule:evenodd;clip-rule:evenodd;fill:url(#SVGID_00000182509876054781288690000012557154218490883470_);" d="
		M432.2,128.27c0,0-137.52,168.58,66.92,316.41c204.43,147.83,459.05,176.36,503.66,261.95c44.6,85.59-46.46,185.44-206.31,245.09
		c155.98-21.94,377.9-199.68,204.1-324.53c-47.55-34.16-136.9-72.67-305.13-143.55C363.52,343.8,432.2,128.27,432.2,128.27
		L432.2,128.27z"/>
</g>
</svg>
