<?xml version="1.0" encoding="UTF-8" standalone="no" ?>
<!DOCTYPE svg PUBLIC "-//W3C//DTD SVG 1.1//EN" "http://www.w3.org/Graphics/SVG/1.1/DTD/svg11.dtd">
<svg xmlns="http://www.w3.org/2000/svg" xmlns:xlink="http://www.w3.org/1999/xlink" version="1.1" width="1080" height="1080" viewBox="0 0 1080 1080" xml:space="preserve">
<desc>Created with Fabric.js 5.2.4</desc>
<defs>
</defs>
<rect x="0" y="0" width="100%" height="100%" fill="transparent"></rect>
<g transform="matrix(1 0 0 1 540 540)" id="dd6f9661-7ea4-4ec0-8e9c-9cf233bdd401"  >
</g>
<g transform="matrix(1 0 0 1 540 540)" id="c2528ad7-46d3-4b07-b1e0-c889da9cdb5f"  >
<rect style="stroke: none; stroke-width: 1; stroke-dasharray: none; stroke-linecap: butt; stroke-dashoffset: 0; stroke-linejoin: miter; stroke-miterlimit: 4; fill: rgb(255,255,255); fill-rule: nonzero; opacity: 1; visibility: hidden;" vector-effect="non-scaling-stroke"  x="-540" y="-540" rx="0" ry="0" width="1080" height="1080" />
</g>
<g transform="matrix(0.54 0 0 0.54 540 154.33)"  >
<g style="" vector-effect="non-scaling-stroke"   >
		<g transform="matrix(0.63 0 0 0.63 -1.63 -92.64)"  >
<path style="stroke: none; stroke-width: 1; stroke-dasharray: none; stroke-linecap: butt; stroke-dashoffset: 0; stroke-linejoin: miter; stroke-miterlimit: 4; fill: rgb(4,93,123); fill-rule: nonzero; opacity: 1;" vector-effect="non-scaling-stroke"  transform=" translate(-345, -284.5)" d="M 0 0 L 35 0 L 62 3 L 87 8 L 106 13 L 133 23 L 154 33 L 171 43 L 188 55 L 199 64 L 213 76 L 230 92 L 506 368 L 511 352 L 517 341 L 528 330 L 542 323 L 552 321 L 564 321 L 575 323 L 587 329 L 597 338 L 603 346 L 607 354 L 610 365 L 610 381 L 606 393 L 600 403 L 592 412 L 583 418 L 572 422 L 562 424 L 641 503 L 646 507 L 650 506 L 664 491 L 720 435 L 728 428 L 731 425 L 733 425 L 735 437 L 740 448 L 747 457 L 755 464 L 766 469 L 782 472 L 798 470 L 814 462 L 821 456 L 828 446 L 833 434 L 834 428 L 834 415 L 831 403 L 826 393 L 819 384 L 809 377 L 801 373 L 788 370 L 789 366 L 866 289 L 870 286 L 868 282 L 861 274 L 787 200 L 787 198 L 800 196 L 812 190 L 820 184 L 827 174 L 831 166 L 834 155 L 834 141 L 831 129 L 826 119 L 817 109 L 803 101 L 793 98 L 774 98 L 761 102 L 750 109 L 743 116 L 735 132 L 733 145 L 728 142 L 647 61 L 640 67 L 563 144 L 579 149 L 590 155 L 596 160 L 605 173 L 609 184 L 610 189 L 610 204 L 606 217 L 600 227 L 591 237 L 580 244 L 570 247 L 558 248 L 542 246 L 528 239 L 517 228 L 510 214 L 508 208 L 507 201 L 499 207 L 476 230 L 470 237 L 462 244 L 457 249 L 381 173 L 387 166 L 479 74 L 490 65 L 502 55 L 518 44 L 533 35 L 549 27 L 570 18 L 591 11 L 616 5 L 643 1 L 653 0 L 687 0 L 715 3 L 746 9 L 769 16 L 795 27 L 816 38 L 834 50 L 850 62 L 864 74 L 879 88 L 890 100 L 903 117 L 915 135 L 927 156 L 934 171 L 943 196 L 949 218 L 954 243 L 956 261 L 957 291 L 956 312 L 953 333 L 947 359 L 939 385 L 929 408 L 918 429 L 908 444 L 900 455 L 889 469 L 877 482 L 869 491 L 861 498 L 845 511 L 828 523 L 811 533 L 789 544 L 760 555 L 735 562 L 714 566 L 695 568 L 651 568 L 626 565 L 602 560 L 600 558 L 598 559 L 583 555 L 559 546 L 534 534 L 517 524 L 499 511 L 485 499 L 473 488 L 458 474 L 185 201 L 183 200 L 182 210 L 177 222 L 169 233 L 159 241 L 148 246 L 144 247 L 120 247 L 108 243 L 97 235 L 89 226 L 83 214 L 81 207 L 80 194 L 82 182 L 87 170 L 94 161 L 103 153 L 113 148 L 120 146 L 128 146 L 120 136 L 89 105 L 87 104 L 87 102 L 84 101 L 84 99 L 80 97 L 66 83 L 62 78 L 60 77 L 60 75 L 56 73 L 44 61 L 42 61 L 35 69 L -40 144 L -42 144 L -46 128 L -52 117 L -57 111 L -67 104 L -79 99 L -84 98 L -103 98 L -113 101 L -121 105 L -131 113 L -138 123 L -142 134 L -143 139 L -143 156 L -140 168 L -133 180 L -126 187 L -115 194 L -104 197 L -97 198 L -99 203 L -172 276 L -181 283 L -175 290 L -97 368 L -97 370 L -113 374 L -121 378 L -133 389 L -140 401 L -143 412 L -143 432 L -139 444 L -133 453 L -124 462 L -110 469 L -94 472 L -79 470 L -67 465 L -58 458 L -51 450 L -45 438 L -42 425 L -38 427 L 43 508 L 47 506 L 62 491 L 66 486 L 73 480 L 80 472 L 88 465 L 95 458 L 96 456 L 98 456 L 99 453 L 107 446 L 127 426 L 128 423 L 118 422 L 108 418 L 99 412 L 89 402 L 83 390 L 81 383 L 80 369 L 82 359 L 86 349 L 92 339 L 99 332 L 110 325 L 119 322 L 126 321 L 138 321 L 149 323 L 162 330 L 172 339 L 178 349 L 182 359 L 185 368 L 194 358 L 199 353 L 201 353 L 203 349 L 232 320 L 235 320 L 242 328 L 293 379 L 298 383 L 305 391 L 309 395 L 307 399 L 215 491 L 207 498 L 193 510 L 176 522 L 160 532 L 143 541 L 118 551 L 90 560 L 65 565 L 39 568 L 3 569 L -26 566 L -54 560 L -87 549 L -110 539 L -130 528 L -142 520 L -161 506 L -176 493 L -196 473 L -207 459 L -217 446 L -230 425 L -242 402 L -252 376 L -259 352 L -264 326 L -266 308 L -267 283 L -266 260 L -262 232 L -257 209 L -247 179 L -236 155 L -225 135 L -214 119 L -204 106 L -193 93 L -180 79 L -172 72 L -161 62 L -143 49 L -124 37 L -103 26 L -76 15 L -52 8 L -19 2 z" stroke-linecap="round" />
</g>
		<g transform="matrix(0.63 0 0 0.63 199.25 -159.11)"  >
<path style="stroke: none; stroke-width: 1; stroke-dasharray: none; stroke-linecap: butt; stroke-dashoffset: 0; stroke-linejoin: miter; stroke-miterlimit: 4; fill: rgb(8,54,76); fill-rule: nonzero; opacity: 1;" vector-effect="non-scaling-stroke"  transform=" translate(-16, -179)" d="M 0 0 L 34 0 L 62 3 L 93 9 L 116 16 L 142 27 L 163 38 L 181 50 L 197 62 L 211 74 L 226 88 L 237 100 L 250 117 L 262 135 L 274 156 L 281 171 L 290 196 L 296 218 L 301 243 L 303 261 L 304 291 L 303 312 L 300 333 L 295 356 L 294 358 L 289 356 L 219 286 L 219 284 L 215 282 L 208 274 L 134 200 L 134 198 L 147 196 L 159 190 L 167 184 L 174 174 L 178 166 L 181 155 L 181 141 L 178 129 L 173 119 L 164 109 L 150 101 L 140 98 L 121 98 L 108 102 L 97 109 L 90 116 L 82 132 L 80 145 L 75 142 L -6 61 L -13 67 L -90 144 L -74 149 L -63 155 L -57 160 L -48 173 L -44 184 L -43 189 L -43 204 L -47 217 L -53 227 L -62 237 L -73 244 L -83 247 L -95 248 L -111 246 L -125 239 L -136 228 L -143 214 L -145 208 L -146 201 L -154 207 L -177 230 L -183 237 L -191 244 L -196 249 L -272 173 L -266 166 L -174 74 L -163 65 L -151 55 L -135 44 L -120 35 L -104 27 L -83 18 L -62 11 L -37 5 L -10 1 z" stroke-linecap="round" />
</g>
		<g transform="matrix(0.63 0 0 0.63 -205.75 -27.23)"  >
<path style="stroke: none; stroke-width: 1; stroke-dasharray: none; stroke-linecap: butt; stroke-dashoffset: 0; stroke-linejoin: miter; stroke-miterlimit: 4; fill: rgb(8,54,76); fill-rule: nonzero; opacity: 1;" vector-effect="non-scaling-stroke"  transform=" translate(-278, -179)" d="M 0 0 L 5 2 L 18 14 L 72 68 L 75 70 L 78 75 L 160 157 L 160 159 L 144 163 L 136 167 L 124 178 L 117 190 L 114 201 L 114 221 L 118 233 L 124 242 L 133 251 L 147 258 L 163 261 L 178 259 L 190 254 L 199 247 L 206 239 L 212 227 L 215 214 L 219 216 L 300 297 L 304 295 L 319 280 L 323 275 L 330 269 L 337 261 L 345 254 L 352 247 L 353 245 L 355 245 L 356 242 L 364 235 L 384 215 L 385 212 L 375 211 L 365 207 L 356 201 L 346 191 L 340 179 L 338 172 L 337 158 L 339 148 L 343 138 L 349 128 L 356 121 L 367 114 L 376 111 L 383 110 L 395 110 L 406 112 L 419 119 L 429 128 L 435 138 L 439 148 L 442 157 L 451 147 L 456 142 L 458 142 L 460 138 L 489 109 L 492 109 L 499 117 L 550 168 L 555 172 L 562 180 L 566 184 L 564 188 L 472 280 L 464 287 L 450 299 L 433 311 L 417 321 L 400 330 L 375 340 L 347 349 L 322 354 L 296 357 L 260 358 L 231 355 L 203 349 L 170 338 L 147 328 L 127 317 L 115 309 L 96 295 L 81 282 L 61 262 L 50 248 L 40 235 L 27 214 L 15 191 L 5 165 L -2 141 L -7 115 L -9 97 L -10 72 L -9 49 L -5 21 L -1 2 z" stroke-linecap="round" />
</g>
		<g transform="matrix(0.63 0 0 0.63 -271 -182.74)"  >
<path style="stroke: none; stroke-width: 1; stroke-dasharray: none; stroke-linecap: butt; stroke-dashoffset: 0; stroke-linejoin: miter; stroke-miterlimit: 4; fill: rgb(129,206,216); fill-rule: nonzero; opacity: 1;" vector-effect="non-scaling-stroke"  transform=" translate(82.5, -141.5)" d="M 0 0 L 35 0 L 62 3 L 87 8 L 92 10 L 89 15 L 46 58 L 44 61 L 42 61 L 35 69 L -40 144 L -42 144 L -46 128 L -52 117 L -57 111 L -67 104 L -79 99 L -84 98 L -103 98 L -113 101 L -121 105 L -131 113 L -138 123 L -142 134 L -143 139 L -143 156 L -140 168 L -133 180 L -126 187 L -115 194 L -104 197 L -97 198 L -99 203 L -172 276 L -181 283 L -188 277 L -247 218 L -255 212 L -257 211 L -254 199 L -247 179 L -236 155 L -225 135 L -214 119 L -204 106 L -193 93 L -180 79 L -172 72 L -161 62 L -143 49 L -124 37 L -103 26 L -76 15 L -52 8 L -19 2 z" stroke-linecap="round" />
</g>
		<g transform="matrix(0.63 0 0 0.63 264 -4.92)"  >
<path style="stroke: none; stroke-width: 1; stroke-dasharray: none; stroke-linecap: butt; stroke-dashoffset: 0; stroke-linejoin: miter; stroke-miterlimit: 4; fill: rgb(129,206,216); fill-rule: nonzero; opacity: 1;" vector-effect="non-scaling-stroke"  transform=" translate(97.5, -142)" d="M 0 0 L 72 72 L 76 75 L 68 101 L 58 124 L 47 145 L 37 160 L 29 171 L 18 185 L 6 198 L -2 207 L -10 214 L -26 227 L -43 239 L -60 249 L -82 260 L -111 271 L -136 278 L -157 282 L -176 284 L -220 284 L -245 281 L -269 276 L -271 271 L -226 226 L -225 224 L -220 221 L -208 208 L -151 151 L -143 144 L -140 141 L -138 141 L -136 153 L -131 164 L -124 173 L -116 180 L -105 185 L -89 188 L -73 186 L -57 178 L -50 172 L -43 162 L -38 150 L -37 144 L -37 131 L -40 119 L -45 109 L -52 100 L -62 93 L -70 89 L -83 86 L -82 82 L -5 5 z" stroke-linecap="round" />
</g>
		<g transform="matrix(0.63 0 0 0.63 101.28 -190.65)"  >
<path style="stroke: none; stroke-width: 1; stroke-dasharray: none; stroke-linecap: butt; stroke-dashoffset: 0; stroke-linejoin: miter; stroke-miterlimit: 4; fill: rgb(3,125,166); fill-rule: nonzero; opacity: 1;" vector-effect="non-scaling-stroke"  transform=" translate(85.5, -120)" d="M 0 0 L 4 5 L 20 21 L 20 23 L 24 25 L 31 32 L 38 40 L 45 47 L 47 52 L -36 135 L -20 140 L -9 146 L -3 151 L 6 164 L 10 175 L 11 180 L 11 195 L 7 208 L 1 218 L -8 228 L -19 235 L -29 238 L -41 239 L -57 237 L -71 230 L -82 219 L -89 205 L -91 199 L -92 192 L -100 198 L -123 221 L -129 228 L -137 235 L -142 240 L -218 164 L -212 157 L -120 65 L -109 56 L -97 46 L -81 35 L -66 26 L -50 18 L -29 9 L -8 2 z" stroke-linecap="round" />
</g>
		<g transform="matrix(0.63 0 0 0.63 -109.03 3.41)"  >
<path style="stroke: none; stroke-width: 1; stroke-dasharray: none; stroke-linecap: butt; stroke-dashoffset: 0; stroke-linejoin: miter; stroke-miterlimit: 4; fill: rgb(3,125,166); fill-rule: nonzero; opacity: 1;" vector-effect="non-scaling-stroke"  transform=" translate(55, -119.5)" d="M 0 0 L 3 0 L 10 8 L 61 59 L 66 63 L 73 71 L 77 75 L 75 79 L -17 171 L -25 178 L -39 190 L -56 202 L -72 212 L -89 221 L -114 231 L -138 239 L -140 239 L -181 198 L -187 190 L -185 186 L -170 171 L -166 166 L -159 160 L -152 152 L -144 145 L -137 138 L -136 136 L -134 136 L -133 133 L -125 126 L -105 106 L -104 103 L -114 102 L -124 98 L -133 92 L -143 82 L -149 70 L -151 63 L -152 49 L -150 39 L -146 29 L -140 19 L -133 12 L -122 5 L -113 2 L -106 1 L -94 1 L -83 3 L -70 10 L -60 19 L -54 29 L -50 39 L -47 48 L -38 38 L -33 33 L -31 33 L -29 29 z" stroke-linecap="round" />
</g>
		<g transform="matrix(0.63 0 0 0.63 364.1 201.8)"  >
<path style="stroke: none; stroke-width: 1; stroke-dasharray: none; stroke-linecap: butt; stroke-dashoffset: 0; stroke-linejoin: miter; stroke-miterlimit: 4; fill: rgb(11,61,83); fill-rule: nonzero; opacity: 1;" vector-effect="non-scaling-stroke"  transform=" translate(58.5, -109)" d="M 0 0 L 3 1 L 5 5 L 9 7 L 10 68 L 10 107 L 9 201 L 8 217 L -37 217 L -38 212 L -44 211 L -45 157 L -46 133 L -52 143 L -55 146 L -60 145 L -72 133 L -72 163 L -70 207 L -70 216 L -92 218 L -114 218 L -119 215 L -126 209 L -127 204 L -127 35 L -126 4 L -118 2 L -81 2 L -73 9 L -67 19 L -61 35 L -61 37 L -59 37 L -58 30 L -51 10 L -46 2 L -44 1 z M -26 5 L -43 6 L -47 14 L -59 49 L -60 52 L -64 48 L -73 27 L -80 9 L -83 6 L -115 6 L -121 8 L -122 64 L -122 203 L -121 207 L -82 207 L -81 206 L -82 172 L -82 124 L -81 98 L -79 99 L -72 119 L -65 133 L -61 135 L -46 96 L -43 94 L -41 146 L -40 189 L -39 207 L -2 207 L -1 146 L -1 5 z" stroke-linecap="round" />
</g>
		<g transform="matrix(0.63 0 0 0.63 -348.71 202.75)"  >
<path style="stroke: none; stroke-width: 1; stroke-dasharray: none; stroke-linecap: butt; stroke-dashoffset: 0; stroke-linejoin: miter; stroke-miterlimit: 4; fill: rgb(12,62,84); fill-rule: nonzero; opacity: 1;" vector-effect="non-scaling-stroke"  transform=" translate(-18, -111.5)" d="M 0 0 L 27 0 L 43 4 L 57 11 L 66 18 L 74 26 L 82 39 L 85 48 L 86 54 L 86 75 L 82 80 L 44 80 L 36 73 L 29 60 L 25 57 L 22 56 L 13 56 L 10 57 L 7 68 L 4 85 L 3 98 L 3 145 L 6 161 L 9 165 L 22 165 L 28 162 L 32 157 L 34 149 L 26 149 L 19 147 L 12 140 L 11 135 L 11 104 L 20 101 L 29 100 L 47 100 L 78 102 L 80 103 L 81 107 L 86 109 L 87 114 L 88 131 L 88 168 L 85 187 L 80 199 L 71 209 L 61 215 L 46 220 L 25 223 L 8 223 L -6 220 L -18 214 L -29 205 L -37 195 L -44 181 L -48 164 L -51 134 L -52 115 L -52 75 L -50 52 L -47 38 L -43 29 L -36 18 L -26 9 L -13 3 z M 5 4 L -11 7 L -25 14 L -35 24 L -42 38 L -45 52 L -47 73 L -47 122 L -46 143 L -43 166 L -39 179 L -33 191 L -24 202 L -15 208 L -2 212 L 16 213 L 34 211 L 50 206 L 61 200 L 68 193 L 74 181 L 77 166 L 78 153 L 78 135 L 76 107 L 74 106 L 60 105 L 23 105 L 16 107 L 15 109 L 16 138 L 17 139 L 39 139 L 38 156 L 35 162 L 30 167 L 20 170 L 8 170 L 2 167 L -2 162 L -6 150 L -8 134 L -8 110 L -6 75 L -3 56 L 1 48 L 7 46 L 21 46 L 28 49 L 34 56 L 41 70 L 74 70 L 76 65 L 75 48 L 71 35 L 65 25 L 58 18 L 45 10 L 29 5 L 22 4 z" stroke-linecap="round" />
</g>
		<g transform="matrix(0.63 0 0 0.63 -144.96 200.26)"  >
<path style="stroke: none; stroke-width: 1; stroke-dasharray: none; stroke-linecap: butt; stroke-dashoffset: 0; stroke-linejoin: miter; stroke-miterlimit: 4; fill: rgb(11,60,82); fill-rule: nonzero; opacity: 1;" vector-effect="non-scaling-stroke"  transform=" translate(-23, -114.5)" d="M 0 0 L 25 0 L 40 4 L 54 11 L 66 20 L 72 25 L 83 39 L 91 55 L 94 69 L 94 84 L 91 99 L 89 102 L 86 103 L 65 104 L 45 102 L 40 99 L 34 92 L 32 70 L 29 64 L 26 63 L 19 63 L 12 66 L 10 84 L 9 107 L 9 141 L 11 158 L 14 165 L 18 167 L 27 166 L 32 161 L 34 154 L 38 129 L 78 129 L 83 131 L 88 136 L 91 141 L 93 154 L 93 170 L 90 185 L 83 199 L 71 212 L 61 219 L 49 225 L 37 228 L 30 229 L 7 229 L -9 225 L -25 217 L -37 206 L -43 197 L -47 183 L -48 170 L -48 48 L -44 35 L -37 22 L -28 12 L -23 8 L -13 3 z M 6 4 L -6 6 L -18 11 L -26 17 L -33 25 L -41 41 L -43 48 L -44 69 L -44 148 L -43 173 L -41 190 L -36 199 L -30 206 L -19 213 L -8 217 L 3 219 L 23 219 L 37 216 L 49 211 L 60 204 L 71 193 L 77 184 L 82 169 L 83 162 L 83 150 L 81 138 L 79 134 L 75 133 L 42 133 L 41 134 L 39 156 L 35 166 L 30 170 L 27 171 L 13 171 L 8 168 L 4 163 L 1 154 L -1 139 L -1 89 L 1 62 L 2 56 L 8 54 L 22 53 L 29 55 L 33 59 L 36 67 L 38 89 L 39 91 L 49 93 L 66 94 L 79 92 L 82 88 L 84 77 L 84 65 L 81 51 L 74 37 L 62 24 L 54 17 L 42 10 L 31 6 L 19 4 z" stroke-linecap="round" />
</g>
		<g transform="matrix(0.63 0 0 0.63 -470.27 182.28)"  >
<path style="stroke: none; stroke-width: 1; stroke-dasharray: none; stroke-linecap: butt; stroke-dashoffset: 0; stroke-linejoin: miter; stroke-miterlimit: 4; fill: rgb(12,62,84); fill-rule: nonzero; opacity: 1;" vector-effect="non-scaling-stroke"  transform=" translate(21.5, -142.5)" d="M 0 0 L 4 1 L 17 13 L 32 29 L 33 32 L 17 47 L 9 54 L 1 62 L -4 64 L 9 69 L 22 76 L 33 87 L 40 97 L 45 108 L 47 116 L 48 127 L 48 181 L 47 208 L 44 235 L 40 251 L 35 261 L 26 271 L 14 278 L -3 283 L -19 285 L -32 285 L -46 283 L -59 279 L -69 273 L -77 265 L -83 255 L -87 243 L -89 230 L -91 189 L -91 131 L -89 111 L -86 97 L -80 85 L -74 77 L -64 70 L -53 66 L -41 63 L -40 62 L -47 60 L -48 56 L -54 54 L -53 51 L -45 44 L -5 4 z M 0 7 L -16 22 L -45 51 L -45 52 L -40 53 L -9 53 L 7 37 L 18 28 L 20 24 L 3 7 z M -31 67 L -46 69 L -58 73 L -68 79 L -74 86 L -81 100 L -84 112 L -86 130 L -86 198 L -83 236 L -80 248 L -75 258 L -68 265 L -56 271 L -44 274 L -16 274 L 0 270 L 16 262 L 24 254 L 30 242 L 34 225 L 36 206 L 37 190 L 37 117 L 34 103 L 27 89 L 21 82 L 10 75 L -2 70 L -18 67 z" stroke-linecap="round" />
</g>
		<g transform="matrix(0.63 0 0 0.63 164.49 198.7)"  >
<path style="stroke: none; stroke-width: 1; stroke-dasharray: none; stroke-linecap: butt; stroke-dashoffset: 0; stroke-linejoin: miter; stroke-miterlimit: 4; fill: rgb(11,60,82); fill-rule: nonzero; opacity: 1;" vector-effect="non-scaling-stroke"  transform=" translate(-20, -114)" d="M 0 0 L 15 1 L 27 5 L 37 11 L 47 20 L 54 28 L 60 40 L 62 49 L 62 59 L 59 71 L 50 88 L 40 104 L 38 108 L 38 113 L 40 113 L 45 105 L 49 102 L 52 101 L 73 100 L 88 101 L 94 105 L 101 114 L 101 130 L 98 142 L 88 166 L 84 173 L 85 177 L 96 190 L 104 206 L 105 209 L 105 216 L 101 223 L 96 226 L 81 228 L 67 228 L 57 226 L 49 222 L 45 219 L 41 220 L 26 225 L 15 227 L -10 227 L -23 223 L -37 214 L -49 202 L -57 189 L -62 177 L -65 165 L -65 144 L -61 131 L -55 119 L -47 108 L -39 99 L -41 93 L -50 79 L -56 65 L -58 58 L -59 46 L -57 35 L -51 25 L -44 17 L -31 8 L -19 3 L -11 1 z M -7 5 L -22 9 L -35 16 L -46 26 L -52 36 L -54 45 L -53 58 L -48 71 L -41 84 L -32 97 L -35 102 L -42 109 L -51 122 L -57 134 L -60 144 L -60 163 L -56 179 L -49 193 L -38 205 L -28 212 L -17 216 L -12 217 L 7 217 L 22 214 L 34 209 L 40 207 L 52 215 L 60 217 L 84 217 L 92 213 L 94 211 L 94 203 L 87 189 L 75 174 L 73 169 L 80 153 L 88 134 L 91 122 L 91 111 L 87 106 L 84 105 L 56 105 L 49 108 L 45 114 L 41 130 L 37 126 L 30 114 L 28 108 L 28 100 L 34 88 L 43 74 L 49 62 L 51 55 L 51 42 L 48 32 L 41 21 L 30 12 L 19 7 L 10 5 z" stroke-linecap="round" />
</g>
		<g transform="matrix(0.63 0 0 0.63 483.17 201.18)"  >
<path style="stroke: none; stroke-width: 1; stroke-dasharray: none; stroke-linecap: butt; stroke-dashoffset: 0; stroke-linejoin: miter; stroke-miterlimit: 4; fill: rgb(13,62,84); fill-rule: nonzero; opacity: 1;" vector-effect="non-scaling-stroke"  transform=" translate(8, -110)" d="M 0 0 L 10 0 L 12 4 L 17 9 L 32 74 L 43 121 L 62 210 L 63 218 L 58 220 L 25 220 L 16 217 L 9 209 L 3 188 L -1 173 L -2 170 L -10 170 L -15 195 L -19 210 L -23 219 L -72 219 L -72 214 L -78 213 L -79 210 L -68 150 L -56 90 L -46 47 L -34 5 L -31 1 z M 2 4 L -27 5 L -30 10 L -43 58 L -54 107 L -65 164 L -72 203 L -72 209 L -32 209 L -28 198 L -20 162 L -20 160 L 0 161 L 4 171 L 12 203 L 15 208 L 23 210 L 39 211 L 50 210 L 51 209 L 50 199 L 34 124 L 18 54 L 9 15 L 7 5 z" stroke-linecap="round" />
</g>
		<g transform="matrix(0.63 0 0 0.63 -29.65 201.18)"  >
<path style="stroke: none; stroke-width: 1; stroke-dasharray: none; stroke-linecap: butt; stroke-dashoffset: 0; stroke-linejoin: miter; stroke-miterlimit: 4; fill: rgb(11,60,82); fill-rule: nonzero; opacity: 1;" vector-effect="non-scaling-stroke"  transform=" translate(8.5, -110)" d="M 0 0 L 9 0 L 11 4 L 15 6 L 24 45 L 41 117 L 61 210 L 62 218 L 58 220 L 24 220 L 15 217 L 9 210 L 4 194 L -2 173 L -3 171 L -11 170 L -16 195 L -21 213 L -24 219 L -73 219 L -73 214 L -79 213 L -79 205 L -66 136 L -56 87 L -45 41 L -34 3 L -32 1 z M 1 4 L -28 5 L -31 10 L -43 53 L -56 111 L -65 157 L -74 207 L -74 209 L -33 209 L -29 199 L -21 162 L -20 161 L -1 161 L 5 179 L 12 207 L 21 210 L 38 211 L 50 210 L 50 202 L 34 127 L 16 48 L 6 5 z" stroke-linecap="round" />
</g>
		<g transform="matrix(0.63 0 0 0.63 -587.15 200.56)"  >
<path style="stroke: none; stroke-width: 1; stroke-dasharray: none; stroke-linecap: butt; stroke-dashoffset: 0; stroke-linejoin: miter; stroke-miterlimit: 4; fill: rgb(11,61,83); fill-rule: nonzero; opacity: 1;" vector-effect="non-scaling-stroke"  transform=" translate(-54.5, -111)" d="M 0 0 L 24 0 L 36 2 L 41 5 L 47 11 L 48 161 L 117 164 L 119 168 L 123 170 L 123 218 L 121 221 L 75 222 L -6 222 L -8 221 L -9 217 L -14 216 L -14 185 L -13 156 L -13 3 L -7 1 z M 6 4 L -8 6 L -8 143 L -9 193 L -9 212 L 82 212 L 111 211 L 113 205 L 113 169 L 107 168 L 57 166 L 37 166 L 37 9 L 34 6 L 20 4 z" stroke-linecap="round" />
</g>
		<g transform="matrix(0.63 0 0 0.63 587.53 200.87)"  >
<path style="stroke: none; stroke-width: 1; stroke-dasharray: none; stroke-linecap: butt; stroke-dashoffset: 0; stroke-linejoin: miter; stroke-miterlimit: 4; fill: rgb(11,61,83); fill-rule: nonzero; opacity: 1;" vector-effect="non-scaling-stroke"  transform=" translate(-68, -109.5)" d="M 0 0 L 97 0 L 126 2 L 130 4 L 137 11 L 137 46 L 136 60 L 135 61 L 98 61 L 99 136 L 100 187 L 100 217 L 99 218 L 70 219 L 45 219 L 44 215 L 39 213 L 38 209 L 37 100 L 37 61 L 24 61 L 11 60 L 6 57 L 1 52 L 0 48 L -1 35 L -1 1 z M 6 4 L 4 5 L 4 40 L 5 49 L 6 50 L 35 52 L 40 53 L 41 57 L 42 86 L 43 161 L 43 209 L 71 209 L 89 208 L 89 141 L 88 51 L 124 51 L 126 50 L 127 24 L 127 8 L 122 6 L 107 5 L 76 4 z" stroke-linecap="round" />
</g>
		<g transform="matrix(0.63 0 0 0.63 -247.96 201.18)"  >
<path style="stroke: none; stroke-width: 1; stroke-dasharray: none; stroke-linecap: butt; stroke-dashoffset: 0; stroke-linejoin: miter; stroke-miterlimit: 4; fill: rgb(12,61,83); fill-rule: nonzero; opacity: 1;" vector-effect="non-scaling-stroke"  transform=" translate(-30.5, -111)" d="M 0 0 L 23 0 L 58 2 L 59 6 L 64 8 L 64 57 L 63 113 L 63 218 L 55 221 L 4 222 L 3 217 L -3 216 L -3 28 L -1 1 z M 4 4 L 3 8 L 1 58 L 2 116 L 2 211 L 19 212 L 47 212 L 53 210 L 53 90 L 54 42 L 54 6 z" stroke-linecap="round" />
</g>
		<g transform="matrix(0.63 0 0 0.63 -473.92 199.38)"  >
<path style="stroke: none; stroke-width: 1; stroke-dasharray: none; stroke-linecap: butt; stroke-dashoffset: 0; stroke-linejoin: miter; stroke-miterlimit: 4; fill: rgb(10,60,82); fill-rule: nonzero; opacity: 1;" vector-effect="non-scaling-stroke"  transform=" translate(-1, -64.5)" d="M 0 0 L 10 0 L 18 3 L 24 10 L 28 23 L 29 29 L 30 46 L 30 107 L 27 116 L 20 124 L 13 128 L 9 129 L -6 129 L -13 126 L -18 122 L -23 113 L -26 98 L -28 77 L -28 44 L -26 30 L -22 18 L -16 8 L -7 2 z M 8 10 L 0 13 L -8 20 L -15 34 L -17 44 L -18 62 L -18 73 L -15 105 L -12 120 L -8 123 L -5 124 L 9 124 L 17 120 L 23 113 L 25 105 L 25 41 L 24 26 L 20 15 L 15 11 z" stroke-linecap="round" />
</g>
		<g transform="matrix(0.63 0 0 0.63 481.62 192.03)"  >
<path style="stroke: none; stroke-width: 1; stroke-dasharray: none; stroke-linecap: butt; stroke-dashoffset: 0; stroke-linejoin: miter; stroke-miterlimit: 4; fill: rgb(12,61,83); fill-rule: nonzero; opacity: 1;" vector-effect="non-scaling-stroke"  transform=" translate(-3, -31)" d="M 0 0 L 5 1 L 8 9 L 15 55 L 15 61 L 14 62 L -8 62 L -9 60 L -1 3 z M 6 39 L 5 40 L 3 51 L 3 57 L 10 57 L 8 43 z" stroke-linecap="round" />
</g>
		<g transform="matrix(0.63 0 0 0.63 152.28 224.18)"  >
<path style="stroke: none; stroke-width: 1; stroke-dasharray: none; stroke-linecap: butt; stroke-dashoffset: 0; stroke-linejoin: miter; stroke-miterlimit: 4; fill: rgb(12,62,84); fill-rule: nonzero; opacity: 1;" vector-effect="non-scaling-stroke"  transform=" translate(-5, -22.5)" d="M 0 0 L 9 0 L 17 4 L 21 9 L 24 19 L 24 35 L 21 41 L 17 44 L 14 45 L 1 45 L -6 42 L -11 36 L -14 27 L -14 18 L -11 8 L -6 3 z M 5 10 L -1 15 L -3 20 L -4 32 L -2 37 L 2 40 L 14 40 L 18 37 L 19 29 L 19 17 L 16 12 L 12 10 z" stroke-linecap="round" />
</g>
		<g transform="matrix(0.63 0 0 0.63 -31.19 191.72)"  >
<path style="stroke: none; stroke-width: 1; stroke-dasharray: none; stroke-linecap: butt; stroke-dashoffset: 0; stroke-linejoin: miter; stroke-miterlimit: 4; fill: rgb(10,59,81); fill-rule: nonzero; opacity: 1;" vector-effect="non-scaling-stroke"  transform=" translate(-1.5, -31.5)" d="M 0 0 L 3 1 L 7 16 L 13 59 L 12 63 L -10 63 L -9 49 L -4 12 L -2 2 z M 4 37 L 0 58 L 7 59 L 8 55 L 6 40 z" stroke-linecap="round" />
</g>
		<g transform="matrix(0.63 0 0 0.63 150.36 160.72)"  >
<path style="stroke: none; stroke-width: 1; stroke-dasharray: none; stroke-linecap: butt; stroke-dashoffset: 0; stroke-linejoin: miter; stroke-miterlimit: 4; fill: rgb(12,62,84); fill-rule: nonzero; opacity: 1;" vector-effect="non-scaling-stroke"  transform=" translate(1, -18)" d="M 0 0 L 7 1 L 9 4 L 9 24 L 4 34 L -1 36 L -6 31 L -10 22 L -11 12 L -9 5 L -4 1 z M 2 13 L 1 14 L 0 24 L 3 24 L 5 15 L 4 13 z" stroke-linecap="round" />
</g>
		<g transform="matrix(0.63 0 0 0.63 168.25 -249.24)"  >
<path style="stroke: none; stroke-width: 1; stroke-dasharray: none; stroke-linecap: butt; stroke-dashoffset: 0; stroke-linejoin: miter; stroke-miterlimit: 4; fill: rgb(3,93,123); fill-rule: nonzero; opacity: 1;" vector-effect="non-scaling-stroke"  transform=" translate(-22.5, -27)" d="M 0 0 L 4 5 L 20 21 L 20 23 L 24 25 L 31 32 L 38 40 L 45 47 L 47 52 L 45 54 L 42 54 L 41 49 L 39 49 L 33 41 L 28 36 L 28 34 L 26 34 L 26 32 L 23 31 L 16 23 L 7 15 L -2 4 L -2 1 z" stroke-linecap="round" />
</g>
		<g transform="matrix(0.63 0 0 0.63 -175.5 61.7)"  >
<path style="stroke: none; stroke-width: 1; stroke-dasharray: none; stroke-linecap: butt; stroke-dashoffset: 0; stroke-linejoin: miter; stroke-miterlimit: 4; fill: rgb(5,94,124); fill-rule: nonzero; opacity: 1;" vector-effect="non-scaling-stroke"  transform=" translate(-26.5, -25.5)" d="M 0 0 L 3 1 L 10 9 L 23 21 L 28 26 L 32 29 L 32 31 L 35 32 L 40 38 L 48 45 L 53 47 L 52 50 L 47 51 L 6 10 L 0 2 z" stroke-linecap="round" />
</g>
		<g transform="matrix(0.63 0 0 0.63 -357.31 -117.32)"  >
<path style="stroke: none; stroke-width: 1; stroke-dasharray: none; stroke-linecap: butt; stroke-dashoffset: 0; stroke-linejoin: miter; stroke-miterlimit: 4; fill: rgb(3,112,148); fill-rule: nonzero; opacity: 1;" vector-effect="non-scaling-stroke"  transform=" translate(-37.5, -36)" d="M 0 0 L 5 2 L 18 14 L 72 68 L 75 70 L 74 72 L 66 66 L 57 57 L 57 55 L 53 53 L 9 9 L 2 4 L 2 2 L 0 2 z" stroke-linecap="round" />
</g>
		<g transform="matrix(0.63 0 0 0.63 348.62 -70.45)"  >
<path style="stroke: none; stroke-width: 1; stroke-dasharray: none; stroke-linecap: butt; stroke-dashoffset: 0; stroke-linejoin: miter; stroke-miterlimit: 4; fill: rgb(3,103,137); fill-rule: nonzero; opacity: 1;" vector-effect="non-scaling-stroke"  transform=" translate(-37, -36)" d="M 0 0 L 4 2 L 20 17 L 71 68 L 74 70 L 74 72 L 69 70 L 0 1 z" stroke-linecap="round" />
</g>
		<g transform="matrix(0.63 0 0 0.63 -176.13 -248.94)"  >
<path style="stroke: none; stroke-width: 1; stroke-dasharray: none; stroke-linecap: butt; stroke-dashoffset: 0; stroke-linejoin: miter; stroke-miterlimit: 4; fill: rgb(7,127,167); fill-rule: nonzero; opacity: 1;" vector-effect="non-scaling-stroke"  transform=" translate(21.5, -26.5)" d="M 0 0 L 4 1 L -4 8 L -9 13 L -13 18 L -15 18 L -15 20 L -43 48 L -45 53 L -47 52 L -46 47 L -2 3 z" stroke-linecap="round" />
</g>
		<g transform="matrix(0.63 0 0 0.63 168.25 61.08)"  >
<path style="stroke: none; stroke-width: 1; stroke-dasharray: none; stroke-linecap: butt; stroke-dashoffset: 0; stroke-linejoin: miter; stroke-miterlimit: 4; fill: rgb(7,127,167); fill-rule: nonzero; opacity: 1;" vector-effect="non-scaling-stroke"  transform=" translate(22.5, -26.5)" d="M 0 0 L 2 1 L 1 5 L -43 49 L -45 53 L -47 51 L -39 41 L -27 30 L -1 4 z" stroke-linecap="round" />
</g>
		<g transform="matrix(0.63 0 0 0.63 -343.68 -103.99)"  >
<path style="stroke: none; stroke-width: 1; stroke-dasharray: none; stroke-linecap: butt; stroke-dashoffset: 0; stroke-linejoin: miter; stroke-miterlimit: 4; fill: rgb(3,103,136); fill-rule: nonzero; opacity: 1;" vector-effect="non-scaling-stroke"  transform=" translate(-15.5, -14.5)" d="M 0 0 L 4 1 L 28 25 L 31 27 L 30 29 L 22 23 L 13 14 L 13 12 L 9 10 L 0 1 z" stroke-linecap="round" />
</g>
		<g transform="matrix(0.63 0 0 0.63 365.06 -54.02)"  >
<path style="stroke: none; stroke-width: 1; stroke-dasharray: none; stroke-linecap: butt; stroke-dashoffset: 0; stroke-linejoin: miter; stroke-miterlimit: 4; fill: rgb(3,111,148); fill-rule: nonzero; opacity: 1;" vector-effect="non-scaling-stroke"  transform=" translate(-10.5, -9.5)" d="M 0 0 L 4 1 L 18 15 L 21 17 L 21 19 L 16 17 L 0 1 z" stroke-linecap="round" />
</g>
		<g transform="matrix(0.63 0 0 0.63 -338.09 -99.03)"  >
<path style="stroke: none; stroke-width: 1; stroke-dasharray: none; stroke-linecap: butt; stroke-dashoffset: 0; stroke-linejoin: miter; stroke-miterlimit: 4; fill: rgb(3,111,148); fill-rule: nonzero; opacity: 1;" vector-effect="non-scaling-stroke"  transform=" translate(-6.5, -6.5)" d="M 0 0 L 7 6 L 13 11 L 12 13 L 4 7 L 0 3 z" stroke-linecap="round" />
</g>
</g>
</g>
</svg>